<svg xmlns="http://www.w3.org/2000/svg" xmlns:xlink="http://www.w3.org/1999/xlink" version="1.1" id="Layer_1" x="0px" y="0px" viewBox="0 0 26 26" xml:space="preserve" enable-background="new 0 0 26 26">
  <style type="text/css">
	  .st0{fill-rule:evenodd;clip-rule:evenodd;}
  </style>
  <path fill="#777" class="st0" d="M13 26C5.8 26 0 20.2 0 13S5.8 0 13 0c7.2 0 13 5.8 13 13S20.2 26 13 26zM14.4 23.3c0 0 0 0.3 0.1 0.6 0.2 0 0.3 0 0.5-0.1 -0.1-0.2-0.2-0.4-0.2-0.7v-2.3c0 0 0.1-0.9-0.4-1.2V23.3zM18.5 13.9c0-0.7-0.4-1.4-1-1.9 -1-0.9-2.7-0.4-4.6-0.4C11 11.5 9.3 11 8.3 12c-0.6 0.6-1 1.2-1 1.9 0 3 2.5 3.5 5.6 3.5S18.5 17.2 18.5 13.9zM13 24c0.1 0 0.2 0 0.4 0 -0.1-0.2-0.2-0.4-0.2-0.7l0-3.8h-0.3l0 3.8c0 0.3-0.1 0.5-0.2 0.7C12.8 24 12.9 24 13 24zM11.5 23.9c0.1-0.3 0.1-0.6 0.1-0.6v-3.8c-0.5 0.3-0.4 1.2-0.4 1.2v2.3c0 0.3-0.1 0.5-0.2 0.7C11.1 23.8 11.3 23.9 11.5 23.9zM13 2C6.9 2 2 6.9 2 13c0 5 3.3 9.2 7.8 10.5C10 23.3 10 23 10 23v-2.1c-3 0.7-3.6-1.4-3.6-1.4C6 18.3 5.3 18 5.3 18c-0.9-0.6 0.1-0.6 0.1-0.6 1 0.1 1.6 1.1 1.6 1.1 1 1.7 2.6 1.1 3.1 0.8 0.2-0.7 0.6-1.1 0.9-1.4 -4.9 0-5.6-3.5-5.6-5.9 0-1.3 0.5-2.3 1.2-3.2C6.5 8.6 6.1 7.4 6.8 5.7c0 0 1-0.3 3.2 1.2 0.9-0.3 2-0.4 3-0.4 0.9 0 1.8 0.1 2.7 0.3 2.2-1.5 3.1-1.2 3.1-1.2 0.5 1.4 0.3 2.4 0.2 2.9 0.9 0.8 1.4 2 1.4 3.4 0 1 0.2 5.9-5.3 5.9 0.5 0.4 1 1 1 2.1v3c0 0 0 0.2 0.2 0.5C20.7 22.2 24 18 24 13 24 6.9 19.1 2 13 2zM12.3 16.3c0 0 0-0.1 0.1-0.1 0 0 0.1 0 0.1 0.1 0.1 0.2 0.3 0.4 0.5 0.4 0.2 0 0.4-0.1 0.5-0.4 0 0 0.1-0.1 0.1-0.1 0 0 0.1 0.1 0.1 0.1 -0.1 0.3-0.4 0.5-0.7 0.5C12.6 16.8 12.4 16.6 12.3 16.3zM16.2 12.4c0.6 0 1.2 0.8 1.2 1.7 0 0.9-0.5 1.7-1.2 1.7 -0.6 0-1.2-0.8-1.2-1.7C15 13.1 15.5 12.4 16.2 12.4zM13 15.8c-0.2 0-0.3-0.1-0.3-0.3 0-0.2 0.1-0.3 0.3-0.3 0.2 0 0.3 0.1 0.3 0.3C13.2 15.7 13.1 15.8 13 15.8zM9.9 15.7c-0.6 0-1.2-0.8-1.2-1.7 0-0.9 0.5-1.7 1.2-1.7 0.6 0 1.2 0.8 1.2 1.7C11.1 15 10.5 15.7 9.9 15.7z"/>
</svg>