<?xml version="1.0" encoding="utf-8"?>
<!-- Generator: Adobe Illustrator 19.0.0, SVG Export Plug-In . SVG Version: 6.00 Build 0)  -->
<svg version="1.1" id="Layer_1" xmlns="http://www.w3.org/2000/svg" xmlns:xlink="http://www.w3.org/1999/xlink" x="0px" y="0px"
	 viewBox="-371 373 56 56" style="enable-background:new -371 373 56 56;" xml:space="preserve">
<style type="text/css">
	.st0{fill:#4374BA;}
</style>
<g id="_x37_50-home_x40_2x.png">
	<g id="XMLID_43_">
		<path id="XMLID_44_" class="st0" d="M-315.3,401.3L-315.3,401.3l-9.7-10.1V379c0-1.1-0.9-2-2-2h-4c-1.1,0-2,0.9-2,2v3.9l-9.3-9.6
			l0,0c-0.2-0.2-0.4-0.3-0.7-0.3s-0.5,0.1-0.7,0.3l0,0l-27,28l0,0c-0.2,0.2-0.3,0.4-0.3,0.7c0,0.6,0.4,1,1,1c0.3,0,0.5-0.1,0.7-0.3
			l0,0l4.3-4.4V427c0,1.1,0.9,2,2,2h40c1.1,0,2-0.9,2-2v-28.7l4.3,4.4l0,0c0.2,0.2,0.4,0.3,0.7,0.3c0.6,0,1-0.4,1-1
			C-315,401.7-315.1,401.5-315.3,401.3z M-331,379h4v10.2l-4-4.2V379z M-337,427h-12v-22h12V427z M-323,427h-12v-22c0-1.1-0.9-2-2-2
			h-12c-1.1,0-2,0.9-2,2v22h-12v-30.8l20-20.8l20,20.7V427z"/>
	</g>
</g>
<rect x="-349" y="405" width="12" height="22"/>
</svg>
