<svg xmlns="http://www.w3.org/2000/svg" xmlns:xlink="http://www.w3.org/1999/xlink" version="1.1" id="Layer_1" x="0px" y="0px" viewBox="0 0 28 28" xml:space="preserve" enable-background="new 0 0 28 28">
  <path d="M14 2c9.9 0 12 2.1 12 12s-2.1 12-12 12S2 23.9 2 14 4.1 2 14 2M14 0C3 0 0 3 0 14c0 11 3 14 14 14 11 0 14-3 14-14C28 3 25 0 14 0L14 0z"/>
  <circle cx="14" cy="22" r="2"/>
  <path d="M18.7 13.9L17.2 15c-1.1 0.8-1.2 0.4-1.2 2.1V18h-4v-1.4c0-2.2 0.5-2.6 1.9-3.6l1.4-1c1.1-0.8 1.8-1.3 1.8-2.5 0-1.4-1.1-2.2-2.9-2.2 -2 0-2.9 1.2-2.9 2.9V11H7.5v-0.7c0-4 2.8-6.1 6.7-6.1 4 0 6.8 2.2 6.8 5.4C21 11.6 20.1 12.9 18.7 13.9z"/>
</svg>
